<svg xmlns="http://www.w3.org/2000/svg" viewBox="0 0 1280 760" role="img" aria-label="Logo VitrineAuto fundo escuro">
  <defs>
    <linearGradient id="bg" x1="0" y1="0" x2="1" y2="1">
      <stop offset="0%" stop-color="#081126" />
      <stop offset="100%" stop-color="#04070F" />
    </linearGradient>
    <filter id="goldGlow" x="-60%" y="-60%" width="220%" height="220%">
      <feDropShadow dx="0" dy="0" stdDeviation="10" flood-color="#DAB566" flood-opacity="0.42" />
    </filter>
  </defs>

  <rect width="1280" height="760" fill="url(#bg)" />

  <g transform="translate(360 110) scale(1.75)" fill="none" stroke="#DAB566" stroke-linecap="round" stroke-linejoin="round" filter="url(#goldGlow)">
    <path d="M98 146V95C98 58 126 32 160 32C194 32 222 58 222 95V146" stroke-width="7" />
    <path d="M109 146V95C109 64 131 41 160 41C189 41 211 64 211 95V146" stroke-width="5" />
    <path d="M90 146V184H230V146" stroke-width="7" />
    <path d="M54 136C68 136 80 133 92 127L109 117C120 110 134 106 147 106H207C222 106 236 112 247 123L253 129C262 135 273 137 284 137" stroke-width="7" />
    <path d="M58 136L52 147L54 159C55 167 63 173 71 173H86" stroke-width="7" />
    <path d="M278 137L286 145L282 160C280 168 273 173 265 173H233" stroke-width="7" />
    <path d="M120 116C130 111 138 109 147 109H205C216 109 226 113 235 120" stroke-width="5" />
    <path d="M132 119H190" stroke-width="5" />
    <path d="M162 106L164 122" stroke-width="5" />
    <circle cx="95" cy="173" r="18" stroke-width="7" />
    <circle cx="225" cy="173" r="18" stroke-width="7" />
  </g>

  <text x="640" y="585" text-anchor="middle" fill="#DAB566" font-family="Manrope, Arial, sans-serif" font-size="96" letter-spacing="9">
    VITRINEAUTO
  </text>
  <text x="640" y="644" text-anchor="middle" fill="#9BA9CA" font-family="Manrope, Arial, sans-serif" font-size="24" letter-spacing="7">
    SAAS PLATFORM FOR AUTOMOTIVE DEALERSHIPS
  </text>
</svg>
